<?xml version="1.0" encoding="UTF-8" standalone="no"?>
<!-- Created with Inkscape (http://www.inkscape.org/) -->

<svg
   width="48"
   height="48"
   viewBox="0 0 12.7 12.7"
   version="1.1"
   id="svg5"
   inkscape:version="1.1 (c68e22c387, 2021-05-23)"
   sodipodi:docname="check-eye-envelope.svg"
   inkscape:export-xdpi="96"
   inkscape:export-ydpi="96"
   xmlns:inkscape="http://www.inkscape.org/namespaces/inkscape"
   xmlns:sodipodi="http://sodipodi.sourceforge.net/DTD/sodipodi-0.dtd"
   xmlns="http://www.w3.org/2000/svg"
   xmlns:svg="http://www.w3.org/2000/svg">
  <sodipodi:namedview
     id="namedview7"
     pagecolor="#ffffff"
     bordercolor="#666666"
     borderopacity="1.0"
     inkscape:pageshadow="2"
     inkscape:pageopacity="0.0"
     inkscape:pagecheckerboard="0"
     inkscape:document-units="mm"
     showgrid="false"
     units="px"
     inkscape:zoom="8.120695"
     inkscape:cx="43.099759"
     inkscape:cy="20.133745"
     inkscape:window-width="1920"
     inkscape:window-height="1009"
     inkscape:window-x="-8"
     inkscape:window-y="-8"
     inkscape:window-maximized="1"
     inkscape:current-layer="layer1" />
  <defs
     id="defs2" />
  <g
     inkscape:groupmode="layer"
     id="layer3"
     inkscape:label="Check">
    <path
       d="m 9.0048759,0.71062143 c 0.2415557,0.24155634 0.2415557,0.63191297 0,0.87346937 L 4.0578133,6.5311535 c -0.2415561,0.2415562 -0.6319101,0.2415562 -0.8734658,0 L 0.71027509,4.0576196 c -0.24147789,-0.2415563 -0.24147789,-0.6319087 0,-0.873465 0.24151681,-0.2415549 0.63303061,-0.2415549 0.87458631,0 L 3.6036882,5.219021 8.1314097,0.71062143 c 0.2415567,-0.2419397 0.6319107,-0.2419397 0.8734662,0 z"
       id="path2"
       style="stroke-width:0.0193244" />
  </g>
  <g
     inkscape:label="Eye"
     inkscape:groupmode="layer"
     id="layer1"
     style="display:inline">
    <path
       d="m 7.1976011,9.4927776 c 0,-0.8452615 0.6850571,-1.5303177 1.5303185,-1.5303177 0.8452613,0 1.5303174,0.6850562 1.5303174,1.5303177 0,0.8452624 -0.6850561,1.5303174 -1.5303174,1.5303174 -0.8452614,0 -1.5303185,-0.685055 -1.5303185,-1.5303174 z m 1.5303185,0.9564474 c 0.5284374,0 0.9564483,-0.428009 0.9564483,-0.9564474 0,-0.528438 -0.4280109,-0.9564487 -0.9564483,-0.9564487 -0.00837,0 -0.01554,0 -0.034668,0 0.026303,0.060973 0.034668,0.125534 0.034668,0.1912897 0,0.422033 -0.3431263,0.765159 -0.7651594,0.765159 -0.065754,0 -0.1303157,-0.00837 -0.1912897,-0.034672 0,0.019129 0,0.026302 0,0.023911 0,0.5391994 0.4280108,0.9672084 0.9564491,0.9672084 z M 6.4255089,7.7783435 c 0.5628699,-0.5231774 1.3363975,-0.963622 2.3024107,-0.963622 0.9660123,0 1.7395404,0.4404446 2.3026504,0.963622 0.559521,0.5188733 0.933733,1.1298048 1.110675,1.56738 0.03945,0.09445 0.03945,0.1996587 0,0.2941081 -0.176943,0.4268154 -0.551154,1.0377464 -1.110675,1.5673784 -0.56311,0.523657 -1.3366381,0.963623 -2.3026504,0.963623 -0.9660132,0 -1.7395408,-0.439966 -2.3024107,-0.963623 -0.559523,-0.529632 -0.9334944,-1.140563 -1.1113815,-1.5673784 -0.039233,-0.09445 -0.039233,-0.1996587 0,-0.2941081 0.1778871,-0.4375752 0.5518585,-1.0485067 1.1113815,-1.56738 z M 8.7279196,7.3885907 c -0.7795058,0 -1.4203264,0.3538859 -1.9117018,0.8093946 -0.4602913,0.4280108 -0.7780709,0.925364 -0.940428,1.2947923 0.1623571,0.3586682 0.4801367,0.8667814 0.940428,1.2947914 0.4913754,0.455509 1.132196,0.809395 1.9117018,0.809395 0.7795056,0 1.4203264,-0.353886 1.9117014,-0.809395 0.460292,-0.42801 0.767549,-0.9361232 0.940907,-1.2947914 C 11.40717,9.1233493 11.099913,8.6259961 10.639621,8.1979853 10.148246,7.7424766 9.5074252,7.3885907 8.7279196,7.3885907 Z"
       id="path2-5"
       style="stroke-width:0.0119555" />
  </g>
  <g
     inkscape:groupmode="layer"
     id="layer2"
     inkscape:label="Envelope"
     style="display:inline"
     sodipodi:insensitive="true">
    <path
       d="m 11.498439,6.7917013 c 0.371219,0 0.672394,0.3010344 0.672394,0.6723935 0,0.211524 -0.09946,0.4104371 -0.268956,0.5379106 L 8.8537024,10.288136 c -0.1596938,0.119072 -0.3782221,0.119072 -0.537916,0 L 5.2676108,8.0020054 C 5.098297,7.8745319 4.9986556,7.6756188 4.9986556,7.4640948 c 0,-0.3713591 0.3010343,-0.6723935 0.6723935,-0.6723935 z M 8.0468312,10.646748 c 0.3193878,0.239535 0.7564387,0.239535 1.0758264,0 L 12.170833,8.3606178 V 11.27431 c 0,0.494488 -0.402035,0.896523 -0.896523,0.896523 H 5.8951785 c -0.4951891,0 -0.8965229,-0.402035 -0.8965229,-0.896523 V 8.3606178 Z"
       id="path2-2"
       style="stroke-width:0.0140081" />
  </g>
</svg>
